<svg width="1440" height="1024" viewBox="0 0 1440 1024" fill="none" xmlns="http://www.w3.org/2000/svg">
<g clip-path="url(#clip0_859_2302)">
<rect width="1440" height="1024" fill="#F3FFF2"/>
<path d="M720 626.738C720 361.234 935.234 146 1200.74 146H1298C1353.23 146 1398 190.772 1398 246V321C1398 541.914 1218.91 721 998 721H814.262C762.203 721 720 678.797 720 626.738V626.738Z" fill="#298929" fill-opacity="0.4"/>
<path d="M33.1439 317.571C17.9003 222.565 107.859 144.668 199.71 173.339L323.035 211.834C343.455 218.208 362.438 228.864 378.555 242.93V242.93C485.277 336.073 420.85 513 279.197 513H262.428C148.379 513 51.2117 430.18 33.1439 317.571V317.571Z" fill="#205020" fill-opacity="0.7"/>
<path d="M123.666 854.877C110.466 943.677 -1.99311 1028.5 -0.993257 931.5C0.00659227 834.5 -13.1597 644.5 0.500187 631.377C14.1601 618.253 31.6664 600.377 43.6664 592.377C55.6664 584.377 62.1664 596.377 68.6664 631.377C75.1664 666.377 62.1664 690.877 99.1664 706.877C136.166 722.877 140.166 743.877 123.666 854.877Z" fill="#205020" fill-opacity="0.7"/>
<path d="M1056.6 776.132C1151.21 757.164 1153.16 762.876 1205.79 796.788C1218.14 804.74 1233.83 804.718 1246.83 797.882C1287.94 776.252 1291.96 784.894 1325.6 801.132C1463.22 867.561 1399.1 931.132 1364.1 981.132C1339.51 1016.26 1243.78 1012.33 1198.91 990.061C1176.57 978.976 1157.04 945.327 1133.4 937.375C1090.12 922.816 1081.97 924.927 1032.63 924.927C905.437 924.927 947.001 798.105 1056.6 776.132Z" fill="#205020" fill-opacity="0.7"/>
<path d="M742.518 888.539C636.72 918.542 661.999 1006.05 514.07 995.049C430.367 988.825 393.189 910.777 384.164 862.184C358.5 724 200.135 743.672 231.5 637.161C265.674 562.153 420.573 548.462 538.648 515.649C596.228 499.647 570.481 558.153 654.744 637.161C722.69 700.869 840.68 860.701 742.518 888.539Z" fill="#298929" fill-opacity="0.4"/>
<path d="M738.68 273.13C636.18 222.63 677.367 354.28 568.68 348.13C507.183 344.651 554.311 249.794 547.68 222.63C529.187 146.871 401.687 191.769 418.528 137.355C419.2 135.185 420.278 133.038 421.468 131.103C445.604 91.855 462.995 86.5363 547.68 68.6303C589.986 59.6853 695.77 47.4642 757.68 91.6302C807.601 127.243 804.865 305.738 738.68 273.13Z" fill="#298929" fill-opacity="0.4"/>
</g>
<defs>
<clipPath id="clip0_859_2302">
<rect width="1440" height="1024" fill="white"/>
</clipPath>
</defs>
</svg>
